<svg width="14" height="14" viewBox="0 0 14 14" fill="none" xmlns="http://www.w3.org/2000/svg">
<circle cx="7" cy="7" r="5" fill="white"/>
<path d="M2 0C0.896875 0 0 0.896875 0 2V12C0 13.1031 0.896875 14 2 14H12C13.1031 14 14 13.1031 14 12V2C14 0.896875 13.1031 0 12 0H2ZM4.46875 4.46875C4.7625 4.175 5.2375 4.175 5.52812 4.46875L6.99687 5.9375L8.46562 4.46875C8.75937 4.175 9.23438 4.175 9.525 4.46875C9.81563 4.7625 9.81875 5.2375 9.525 5.52813L8.05625 6.99688L9.525 8.46563C9.81875 8.75938 9.81875 9.23438 9.525 9.525C9.23125 9.81563 8.75625 9.81875 8.46562 9.525L6.99687 8.05625L5.52812 9.525C5.23437 9.81875 4.75938 9.81875 4.46875 9.525C4.17812 9.23125 4.175 8.75625 4.46875 8.46563L5.9375 6.99688L4.46875 5.52813C4.175 5.23438 4.175 4.75938 4.46875 4.46875Z" 
fill="#bf4040"/>
</svg>
